<mxfile host="app.diagrams.net" agent="Mozilla/5.0 (Windows NT 10.0; Win64; x64) AppleWebKit/537.36 (KHTML, like Gecko) Chrome/125.0.0.0 Safari/537.36" version="24.7.16">
  <diagram id="uTQoViJn-8xuxh2rUMcN" name="Page-1">
    <mxGraphModel dx="1719" dy="452" grid="1" gridSize="10" guides="1" tooltips="1" connect="1" arrows="1" fold="1" page="1" pageScale="1" pageWidth="850" pageHeight="1100" math="0" shadow="0">
      <root>
        <mxCell id="0" />
        <mxCell id="1" parent="0" />
        <mxCell id="WS-DNeEKtPOSdSVS7rN--112" value="" style="endArrow=classic;html=1;rounded=0;fontFamily=Helvetica;elbow=vertical;fillColor=#f8cecc;strokeColor=#EA6B66;exitX=1.029;exitY=0.5;exitDx=0;exitDy=0;exitPerimeter=0;entryX=0;entryY=0.5;entryDx=0;entryDy=0;entryPerimeter=0;edgeStyle=orthogonalEdgeStyle;strokeWidth=2;" parent="1" source="DY2eJxKH5vXFQJl_m2-v-55" target="nUi1EGc2xyxIw3pwP0UZ-53" edge="1">
          <mxGeometry width="50" height="50" relative="1" as="geometry">
            <mxPoint x="-20" y="480" as="sourcePoint" />
            <mxPoint x="393" y="796.3400000000001" as="targetPoint" />
            <Array as="points">
              <mxPoint x="330" y="610" />
              <mxPoint x="330" y="805" />
            </Array>
          </mxGeometry>
        </mxCell>
        <mxCell id="WS-DNeEKtPOSdSVS7rN--99" value="" style="endArrow=classic;html=1;rounded=0;fontFamily=Helvetica;fillColor=#f8cecc;strokeColor=#EA6B66;exitX=1;exitY=0.4;exitDx=0;exitDy=0;exitPerimeter=0;edgeStyle=orthogonalEdgeStyle;strokeWidth=2;entryX=0;entryY=0.5;entryDx=0;entryDy=0;" parent="1" source="DY2eJxKH5vXFQJl_m2-v-56" target="WS-DNeEKtPOSdSVS7rN--85" edge="1">
          <mxGeometry width="50" height="50" relative="1" as="geometry">
            <mxPoint x="-20" y="520" as="sourcePoint" />
            <mxPoint x="110" y="830" as="targetPoint" />
            <Array as="points">
              <mxPoint x="65" y="648" />
            </Array>
          </mxGeometry>
        </mxCell>
        <mxCell id="DY2eJxKH5vXFQJl_m2-v-65" style="edgeStyle=orthogonalEdgeStyle;rounded=0;orthogonalLoop=1;jettySize=auto;html=1;strokeColor=#EA6B66;exitX=1.004;exitY=0.498;exitDx=0;exitDy=0;exitPerimeter=0;strokeWidth=2;entryX=0;entryY=0.493;entryDx=0;entryDy=0;entryPerimeter=0;" parent="1" source="DY2eJxKH5vXFQJl_m2-v-54" target="nUi1EGc2xyxIw3pwP0UZ-41" edge="1">
          <mxGeometry relative="1" as="geometry">
            <mxPoint x="180" y="830" as="targetPoint" />
            <Array as="points">
              <mxPoint x="140" y="630" />
              <mxPoint x="140" y="815" />
            </Array>
            <mxPoint x="-30" y="560" as="sourcePoint" />
          </mxGeometry>
        </mxCell>
        <mxCell id="DY2eJxKH5vXFQJl_m2-v-60" value="RegWr" style="edgeStyle=orthogonalEdgeStyle;rounded=0;orthogonalLoop=1;jettySize=auto;html=1;entryX=0.004;entryY=0.5;entryDx=0;entryDy=0;strokeColor=#EA6B66;strokeWidth=2;entryPerimeter=0;exitX=1.002;exitY=0.5;exitDx=0;exitDy=0;exitPerimeter=0;" parent="1" source="DY2eJxKH5vXFQJl_m2-v-57" target="WS-DNeEKtPOSdSVS7rN--73" edge="1">
          <mxGeometry x="0.1476" relative="1" as="geometry">
            <Array as="points">
              <mxPoint x="20" y="670" />
              <mxPoint x="20" y="780" />
              <mxPoint x="-230" y="780" />
              <mxPoint x="-230" y="975" />
            </Array>
            <mxPoint as="offset" />
          </mxGeometry>
        </mxCell>
        <mxCell id="nUi1EGc2xyxIw3pwP0UZ-70" style="edgeStyle=orthogonalEdgeStyle;rounded=0;orthogonalLoop=1;jettySize=auto;html=1;endArrow=oval;endFill=1;" edge="1" parent="1" source="WS-DNeEKtPOSdSVS7rN--64">
          <mxGeometry relative="1" as="geometry">
            <mxPoint x="-380" y="680" as="targetPoint" />
          </mxGeometry>
        </mxCell>
        <mxCell id="nUi1EGc2xyxIw3pwP0UZ-71" style="edgeStyle=orthogonalEdgeStyle;rounded=0;orthogonalLoop=1;jettySize=auto;html=1;endArrow=oval;endFill=1;" edge="1" parent="1" source="WS-DNeEKtPOSdSVS7rN--64">
          <mxGeometry relative="1" as="geometry">
            <mxPoint x="-260" y="680" as="targetPoint" />
          </mxGeometry>
        </mxCell>
        <mxCell id="nUi1EGc2xyxIw3pwP0UZ-72" style="edgeStyle=orthogonalEdgeStyle;rounded=0;orthogonalLoop=1;jettySize=auto;html=1;endArrow=oval;endFill=1;" edge="1" parent="1" source="WS-DNeEKtPOSdSVS7rN--64">
          <mxGeometry relative="1" as="geometry">
            <mxPoint x="-260.0000000000002" y="850" as="targetPoint" />
          </mxGeometry>
        </mxCell>
        <mxCell id="nUi1EGc2xyxIw3pwP0UZ-84" style="edgeStyle=orthogonalEdgeStyle;rounded=0;orthogonalLoop=1;jettySize=auto;html=1;endArrow=oval;endFill=1;" edge="1" parent="1" source="WS-DNeEKtPOSdSVS7rN--64">
          <mxGeometry relative="1" as="geometry">
            <mxPoint x="-380" y="440" as="targetPoint" />
          </mxGeometry>
        </mxCell>
        <mxCell id="WS-DNeEKtPOSdSVS7rN--64" value="Instruction Memory" style="swimlane;fontFamily=Helvetica;fillColor=#25607D;strokeColor=#25607D;fontColor=#ffffff;gradientColor=none;swimlaneFillColor=#FFFFFF;startSize=20;strokeWidth=2;" parent="1" vertex="1">
          <mxGeometry x="-550" y="600" width="140" height="160" as="geometry" />
        </mxCell>
        <mxCell id="WS-DNeEKtPOSdSVS7rN--65" value="Instr Addr" style="text;html=1;align=left;verticalAlign=middle;resizable=0;points=[];autosize=1;strokeColor=none;fillColor=none;fontFamily=Helvetica;" parent="WS-DNeEKtPOSdSVS7rN--64" vertex="1">
          <mxGeometry y="65" width="70" height="30" as="geometry" />
        </mxCell>
        <mxCell id="WS-DNeEKtPOSdSVS7rN--66" value="Instr" style="text;html=1;align=center;verticalAlign=middle;resizable=0;points=[];autosize=1;strokeColor=none;fillColor=none;fontFamily=Helvetica;" parent="WS-DNeEKtPOSdSVS7rN--64" vertex="1">
          <mxGeometry x="80" y="65" width="50" height="30" as="geometry" />
        </mxCell>
        <mxCell id="DY2eJxKH5vXFQJl_m2-v-74" value="Wr En" style="text;html=1;align=left;verticalAlign=middle;resizable=0;points=[];autosize=1;strokeColor=none;fillColor=none;" parent="WS-DNeEKtPOSdSVS7rN--64" vertex="1">
          <mxGeometry y="120" width="60" height="30" as="geometry" />
        </mxCell>
        <mxCell id="WS-DNeEKtPOSdSVS7rN--91" style="edgeStyle=orthogonalEdgeStyle;rounded=0;orthogonalLoop=1;jettySize=auto;html=1;entryX=0.75;entryY=1;entryDx=0;entryDy=0;fontFamily=Helvetica;exitX=1;exitY=0.75;exitDx=0;exitDy=0;strokeWidth=2;" parent="1" source="WS-DNeEKtPOSdSVS7rN--68" target="WS-DNeEKtPOSdSVS7rN--85" edge="1">
          <mxGeometry relative="1" as="geometry">
            <mxPoint x="-1.7763568394002505e-15" y="960" as="sourcePoint" />
            <Array as="points" />
          </mxGeometry>
        </mxCell>
        <mxCell id="WS-DNeEKtPOSdSVS7rN--93" style="edgeStyle=orthogonalEdgeStyle;rounded=0;orthogonalLoop=1;jettySize=auto;html=1;fontFamily=Helvetica;exitX=1;exitY=0.25;exitDx=0;exitDy=0;entryX=-0.001;entryY=0.495;entryDx=0;entryDy=0;entryPerimeter=0;strokeWidth=2;" parent="1" source="WS-DNeEKtPOSdSVS7rN--68" target="nUi1EGc2xyxIw3pwP0UZ-42" edge="1">
          <mxGeometry relative="1" as="geometry">
            <mxPoint x="-30" y="850" as="sourcePoint" />
            <Array as="points" />
            <mxPoint x="160" y="854.97" as="targetPoint" />
          </mxGeometry>
        </mxCell>
        <mxCell id="WS-DNeEKtPOSdSVS7rN--68" value="Register File" style="swimlane;fontFamily=Helvetica;startSize=20;fillColor=#25607D;fontColor=#ffffff;strokeColor=#25607D;swimlaneFillColor=default;strokeWidth=2;" parent="1" vertex="1">
          <mxGeometry x="-200" y="810" width="160" height="180" as="geometry" />
        </mxCell>
        <mxCell id="WS-DNeEKtPOSdSVS7rN--71" value="iRd" style="text;html=1;align=center;verticalAlign=middle;resizable=0;points=[];autosize=1;strokeColor=none;fillColor=none;fontFamily=Helvetica;" parent="WS-DNeEKtPOSdSVS7rN--68" vertex="1">
          <mxGeometry y="90" width="30" height="20" as="geometry" />
        </mxCell>
        <mxCell id="WS-DNeEKtPOSdSVS7rN--70" value="iRs" style="text;html=1;align=center;verticalAlign=middle;resizable=0;points=[];autosize=1;strokeColor=none;fillColor=none;fontFamily=Helvetica;" parent="WS-DNeEKtPOSdSVS7rN--68" vertex="1">
          <mxGeometry y="30" width="30" height="20" as="geometry" />
        </mxCell>
        <mxCell id="WS-DNeEKtPOSdSVS7rN--69" value="iRt" style="text;html=1;align=center;verticalAlign=middle;resizable=0;points=[];autosize=1;strokeColor=none;fillColor=none;fontFamily=Helvetica;" parent="WS-DNeEKtPOSdSVS7rN--68" vertex="1">
          <mxGeometry y="60" width="30" height="20" as="geometry" />
        </mxCell>
        <mxCell id="WS-DNeEKtPOSdSVS7rN--75" value="oRs" style="text;html=1;align=center;verticalAlign=middle;resizable=0;points=[];autosize=1;strokeColor=none;fillColor=none;fontFamily=Helvetica;" parent="WS-DNeEKtPOSdSVS7rN--68" vertex="1">
          <mxGeometry x="115" y="40" width="40" height="20" as="geometry" />
        </mxCell>
        <mxCell id="WS-DNeEKtPOSdSVS7rN--76" value="oRt" style="text;html=1;align=center;verticalAlign=middle;resizable=0;points=[];autosize=1;strokeColor=none;fillColor=none;fontFamily=Helvetica;" parent="WS-DNeEKtPOSdSVS7rN--68" vertex="1">
          <mxGeometry x="120" y="125" width="30" height="20" as="geometry" />
        </mxCell>
        <mxCell id="WS-DNeEKtPOSdSVS7rN--73" value="Reg Write" style="text;html=1;align=center;verticalAlign=middle;resizable=0;points=[];autosize=1;strokeColor=none;fillColor=none;fontFamily=Helvetica;" parent="WS-DNeEKtPOSdSVS7rN--68" vertex="1">
          <mxGeometry y="150" width="80" height="30" as="geometry" />
        </mxCell>
        <mxCell id="nUi1EGc2xyxIw3pwP0UZ-24" value="Write Data" style="text;html=1;align=center;verticalAlign=middle;resizable=0;points=[];autosize=1;strokeColor=none;fillColor=none;fontFamily=Helvetica;" vertex="1" parent="WS-DNeEKtPOSdSVS7rN--68">
          <mxGeometry y="115" width="80" height="30" as="geometry" />
        </mxCell>
        <mxCell id="WS-DNeEKtPOSdSVS7rN--89" style="edgeStyle=orthogonalEdgeStyle;rounded=0;orthogonalLoop=1;jettySize=auto;html=1;fontFamily=Helvetica;entryX=-0.001;entryY=0.5;entryDx=0;entryDy=0;entryPerimeter=0;strokeWidth=2;" parent="1" source="WS-DNeEKtPOSdSVS7rN--85" target="nUi1EGc2xyxIw3pwP0UZ-43" edge="1">
          <mxGeometry relative="1" as="geometry">
            <mxPoint x="160" y="919.98" as="targetPoint" />
            <Array as="points">
              <mxPoint x="140" y="920" />
              <mxPoint x="140" y="920" />
            </Array>
          </mxGeometry>
        </mxCell>
        <mxCell id="WS-DNeEKtPOSdSVS7rN--85" value="" style="shape=trapezoid;perimeter=trapezoidPerimeter;whiteSpace=wrap;html=1;fixedSize=1;fontFamily=Helvetica;direction=south;container=1;expand=1;collapsible=0;" parent="1" vertex="1">
          <mxGeometry x="50" y="870" width="30" height="100" as="geometry">
            <mxRectangle x="260" y="750" width="60" height="20" as="alternateBounds" />
          </mxGeometry>
        </mxCell>
        <mxCell id="WS-DNeEKtPOSdSVS7rN--87" value="1" style="text;html=1;align=center;verticalAlign=middle;resizable=0;points=[];autosize=1;strokeColor=none;fillColor=none;fontFamily=Helvetica;" parent="WS-DNeEKtPOSdSVS7rN--85" vertex="1">
          <mxGeometry x="5" y="22.226262626262628" width="20" height="20" as="geometry" />
        </mxCell>
        <mxCell id="WS-DNeEKtPOSdSVS7rN--88" value="0" style="text;html=1;align=center;verticalAlign=middle;resizable=0;points=[];autosize=1;strokeColor=none;fillColor=none;fontFamily=Helvetica;" parent="WS-DNeEKtPOSdSVS7rN--85" vertex="1">
          <mxGeometry x="5" y="59.998585858585855" width="20" height="20" as="geometry" />
        </mxCell>
        <mxCell id="WS-DNeEKtPOSdSVS7rN--97" value="" style="endArrow=classic;html=1;rounded=0;fontFamily=Helvetica;exitX=1;exitY=0.75;exitDx=0;exitDy=0;entryX=-0.005;entryY=0.493;entryDx=0;entryDy=0;entryPerimeter=0;edgeStyle=orthogonalEdgeStyle;strokeWidth=2;" parent="1" source="WS-DNeEKtPOSdSVS7rN--68" edge="1" target="nUi1EGc2xyxIw3pwP0UZ-54">
          <mxGeometry width="50" height="50" relative="1" as="geometry">
            <mxPoint x="-1.7763568394002505e-15" y="920" as="sourcePoint" />
            <mxPoint x="398.44000000000005" y="813.72" as="targetPoint" />
            <Array as="points">
              <mxPoint x="-1.7763568394002505e-15" y="945" />
              <mxPoint x="-1.7763568394002505e-15" y="1000" />
              <mxPoint x="330" y="1000" />
              <mxPoint x="330" y="905" />
            </Array>
          </mxGeometry>
        </mxCell>
        <mxCell id="WS-DNeEKtPOSdSVS7rN--114" style="edgeStyle=orthogonalEdgeStyle;rounded=0;orthogonalLoop=1;jettySize=auto;html=1;fontFamily=Helvetica;startArrow=none;startFill=0;elbow=vertical;entryX=0.001;entryY=0.496;entryDx=0;entryDy=0;entryPerimeter=0;strokeWidth=2;exitX=0.5;exitY=0;exitDx=0;exitDy=0;" parent="1" source="nUi1EGc2xyxIw3pwP0UZ-108" edge="1" target="nUi1EGc2xyxIw3pwP0UZ-24">
          <mxGeometry relative="1" as="geometry">
            <mxPoint x="-200" y="760" as="targetPoint" />
            <Array as="points">
              <mxPoint x="690" y="905" />
              <mxPoint x="690" y="1040" />
              <mxPoint x="-260" y="1040" />
              <mxPoint x="-260" y="940" />
            </Array>
            <mxPoint x="630" y="840" as="sourcePoint" />
          </mxGeometry>
        </mxCell>
        <mxCell id="nUi1EGc2xyxIw3pwP0UZ-23" value="Write Data" style="edgeLabel;html=1;align=center;verticalAlign=middle;resizable=0;points=[];" vertex="1" connectable="0" parent="WS-DNeEKtPOSdSVS7rN--114">
          <mxGeometry x="-0.9354" relative="1" as="geometry">
            <mxPoint x="-8" y="-22" as="offset" />
          </mxGeometry>
        </mxCell>
        <mxCell id="WS-DNeEKtPOSdSVS7rN--104" value="" style="endArrow=classic;html=1;rounded=0;fontFamily=Helvetica;exitX=1.002;exitY=0.495;exitDx=0;exitDy=0;exitPerimeter=0;edgeStyle=orthogonalEdgeStyle;entryX=0.25;entryY=1;entryDx=0;entryDy=0;strokeWidth=2;" parent="1" source="nUi1EGc2xyxIw3pwP0UZ-55" target="nUi1EGc2xyxIw3pwP0UZ-108" edge="1">
          <mxGeometry width="50" height="50" relative="1" as="geometry">
            <mxPoint x="465" y="753.3400000000001" as="sourcePoint" />
            <mxPoint x="600" y="865" as="targetPoint" />
          </mxGeometry>
        </mxCell>
        <mxCell id="WS-DNeEKtPOSdSVS7rN--111" value="" style="endArrow=classic;html=1;rounded=0;fontFamily=Helvetica;elbow=vertical;exitX=0.997;exitY=0.505;exitDx=0;exitDy=0;exitPerimeter=0;edgeStyle=orthogonalEdgeStyle;strokeWidth=2;entryX=0.75;entryY=1;entryDx=0;entryDy=0;" parent="1" target="nUi1EGc2xyxIw3pwP0UZ-108" edge="1" source="nUi1EGc2xyxIw3pwP0UZ-48">
          <mxGeometry width="50" height="50" relative="1" as="geometry">
            <mxPoint x="220" y="670" as="sourcePoint" />
            <mxPoint x="610" y="945" as="targetPoint" />
            <Array as="points" />
          </mxGeometry>
        </mxCell>
        <mxCell id="nUi1EGc2xyxIw3pwP0UZ-82" style="edgeStyle=orthogonalEdgeStyle;rounded=0;orthogonalLoop=1;jettySize=auto;html=1;endArrow=oval;endFill=1;strokeWidth=2;fillColor=#0050ef;strokeColor=#001DBC;" edge="1" parent="1" source="DY2eJxKH5vXFQJl_m2-v-2">
          <mxGeometry relative="1" as="geometry">
            <mxPoint x="-460" y="500" as="targetPoint" />
          </mxGeometry>
        </mxCell>
        <mxCell id="nUi1EGc2xyxIw3pwP0UZ-99" value="&lt;font style=&quot;font-size: 14px;&quot;&gt;PC + 4&lt;/font&gt;" style="edgeLabel;html=1;align=center;verticalAlign=middle;resizable=0;points=[];fontStyle=1" vertex="1" connectable="0" parent="nUi1EGc2xyxIw3pwP0UZ-82">
          <mxGeometry x="0.1296" y="-1" relative="1" as="geometry">
            <mxPoint x="47" y="-1" as="offset" />
          </mxGeometry>
        </mxCell>
        <mxCell id="DY2eJxKH5vXFQJl_m2-v-2" value="&lt;b&gt;ADD&lt;/b&gt;" style="verticalLabelPosition=top;verticalAlign=bottom;html=1;shape=mxgraph.basic.polygon;polyCoords=[[0,0],[1,0.31],[1,0.5],[1,0.69],[0,1],[0,0.58],[0.2,0.5],[0,0.42]];polyline=0;fontFamily=Helvetica;labelPosition=center;align=center;strokeWidth=2;" parent="1" vertex="1">
          <mxGeometry x="-550" y="440" width="50" height="120" as="geometry" />
        </mxCell>
        <mxCell id="DY2eJxKH5vXFQJl_m2-v-39" style="edgeStyle=orthogonalEdgeStyle;rounded=0;orthogonalLoop=1;jettySize=auto;html=1;entryX=0.75;entryY=1;entryDx=0;entryDy=0;strokeWidth=2;" parent="1" source="DY2eJxKH5vXFQJl_m2-v-5" target="nUi1EGc2xyxIw3pwP0UZ-91" edge="1">
          <mxGeometry relative="1" as="geometry">
            <mxPoint x="20" y="344" as="targetPoint" />
          </mxGeometry>
        </mxCell>
        <mxCell id="DY2eJxKH5vXFQJl_m2-v-5" value="" style="verticalLabelPosition=top;verticalAlign=bottom;html=1;shape=mxgraph.basic.polygon;polyCoords=[[0,0],[1,0.31],[1,0.5],[1,0.69],[0,1],[0,0.58],[0.2,0.5],[0,0.42]];polyline=0;fontFamily=Helvetica;labelPosition=center;align=center;strokeWidth=2;" parent="1" vertex="1">
          <mxGeometry x="-130" y="350" width="50" height="120" as="geometry" />
        </mxCell>
        <mxCell id="DY2eJxKH5vXFQJl_m2-v-8" style="edgeStyle=orthogonalEdgeStyle;rounded=0;orthogonalLoop=1;jettySize=auto;html=1;exitX=1;exitY=0.5;exitDx=0;exitDy=0;entryX=0.001;entryY=0.498;entryDx=0;entryDy=0;entryPerimeter=0;strokeWidth=2;" parent="1" source="WS-DNeEKtPOSdSVS7rN--64" target="WS-DNeEKtPOSdSVS7rN--70" edge="1">
          <mxGeometry relative="1" as="geometry">
            <mxPoint x="-200" y="810" as="targetPoint" />
            <Array as="points">
              <mxPoint x="-260" y="680" />
              <mxPoint x="-260" y="850" />
            </Array>
          </mxGeometry>
        </mxCell>
        <mxCell id="DY2eJxKH5vXFQJl_m2-v-13" style="edgeStyle=orthogonalEdgeStyle;rounded=0;orthogonalLoop=1;jettySize=auto;html=1;exitX=1;exitY=0.5;exitDx=0;exitDy=0;entryX=-0.005;entryY=0.498;entryDx=0;entryDy=0;entryPerimeter=0;strokeWidth=2;" parent="1" source="WS-DNeEKtPOSdSVS7rN--64" target="WS-DNeEKtPOSdSVS7rN--69" edge="1">
          <mxGeometry relative="1" as="geometry">
            <Array as="points">
              <mxPoint x="-260" y="680" />
              <mxPoint x="-260" y="880" />
            </Array>
            <mxPoint x="-200" y="850" as="targetPoint" />
          </mxGeometry>
        </mxCell>
        <mxCell id="DY2eJxKH5vXFQJl_m2-v-28" style="edgeStyle=orthogonalEdgeStyle;rounded=0;orthogonalLoop=1;jettySize=auto;html=1;exitX=0.5;exitY=0;exitDx=0;exitDy=0;entryX=0.75;entryY=1;entryDx=0;entryDy=0;strokeWidth=2;" parent="1" source="nUi1EGc2xyxIw3pwP0UZ-91" target="nUi1EGc2xyxIw3pwP0UZ-88" edge="1">
          <mxGeometry relative="1" as="geometry">
            <mxPoint x="50" y="319" as="sourcePoint" />
            <mxPoint x="180" y="230" as="targetPoint" />
            <Array as="points">
              <mxPoint x="20" y="390" />
              <mxPoint x="20" y="309" />
            </Array>
          </mxGeometry>
        </mxCell>
        <mxCell id="DY2eJxKH5vXFQJl_m2-v-31" value="Control" style="swimlane;rounded=0;shadow=0;glass=0;fillColor=#25607D;fontColor=#ffffff;strokeColor=#25607D;swimlaneFillColor=default;startSize=20;strokeWidth=2;" parent="1" vertex="1">
          <mxGeometry x="-200" y="500" width="160" height="220" as="geometry" />
        </mxCell>
        <mxCell id="DY2eJxKH5vXFQJl_m2-v-34" value="&lt;span style=&quot;font-weight: normal;&quot;&gt;Instr&lt;/span&gt;" style="text;html=1;resizable=0;autosize=1;align=left;verticalAlign=middle;points=[];fillColor=none;strokeColor=none;rounded=0;rotation=0;fontFamily=Helvetica;fontStyle=1" parent="DY2eJxKH5vXFQJl_m2-v-31" vertex="1">
          <mxGeometry y="95" width="50" height="30" as="geometry" />
        </mxCell>
        <mxCell id="DY2eJxKH5vXFQJl_m2-v-36" value="&lt;span style=&quot;font-weight: normal;&quot;&gt;Jump&lt;/span&gt;" style="text;html=1;resizable=0;autosize=1;align=center;verticalAlign=middle;points=[];fillColor=none;strokeColor=none;rounded=0;rotation=0;fontStyle=1" parent="DY2eJxKH5vXFQJl_m2-v-31" vertex="1">
          <mxGeometry x="110" y="35" width="50" height="30" as="geometry" />
        </mxCell>
        <mxCell id="DY2eJxKH5vXFQJl_m2-v-53" value="&lt;div&gt;MemtoReg&lt;/div&gt;" style="text;html=1;align=center;verticalAlign=middle;resizable=0;points=[];autosize=1;strokeColor=none;fillColor=none;" parent="DY2eJxKH5vXFQJl_m2-v-31" vertex="1">
          <mxGeometry x="90" y="80" width="70" height="20" as="geometry" />
        </mxCell>
        <mxCell id="DY2eJxKH5vXFQJl_m2-v-54" value="ALUOp" style="text;html=1;align=center;verticalAlign=middle;resizable=0;points=[];autosize=1;strokeColor=none;fillColor=none;" parent="DY2eJxKH5vXFQJl_m2-v-31" vertex="1">
          <mxGeometry x="105" y="120" width="50" height="20" as="geometry" />
        </mxCell>
        <mxCell id="DY2eJxKH5vXFQJl_m2-v-55" value="MemWrite" style="text;html=1;align=center;verticalAlign=middle;resizable=0;points=[];autosize=1;strokeColor=none;fillColor=none;" parent="DY2eJxKH5vXFQJl_m2-v-31" vertex="1">
          <mxGeometry x="90" y="100" width="70" height="20" as="geometry" />
        </mxCell>
        <mxCell id="DY2eJxKH5vXFQJl_m2-v-56" value="ALUSrc" style="text;html=1;align=center;verticalAlign=middle;resizable=0;points=[];autosize=1;strokeColor=none;fillColor=none;" parent="DY2eJxKH5vXFQJl_m2-v-31" vertex="1">
          <mxGeometry x="100" y="140" width="60" height="20" as="geometry" />
        </mxCell>
        <mxCell id="DY2eJxKH5vXFQJl_m2-v-57" value="RegWrite" style="text;html=1;align=center;verticalAlign=middle;resizable=0;points=[];autosize=1;strokeColor=none;fillColor=none;" parent="DY2eJxKH5vXFQJl_m2-v-31" vertex="1">
          <mxGeometry x="100" y="160" width="60" height="20" as="geometry" />
        </mxCell>
        <mxCell id="nUi1EGc2xyxIw3pwP0UZ-29" value="RegDst" style="text;html=1;align=center;verticalAlign=middle;resizable=0;points=[];autosize=1;strokeColor=none;fillColor=none;" vertex="1" parent="DY2eJxKH5vXFQJl_m2-v-31">
          <mxGeometry x="100" y="175" width="60" height="30" as="geometry" />
        </mxCell>
        <mxCell id="nUi1EGc2xyxIw3pwP0UZ-75" value="&lt;span style=&quot;font-weight: normal;&quot;&gt;Jump Reg&lt;/span&gt;" style="text;html=1;resizable=0;autosize=1;align=center;verticalAlign=middle;points=[];fillColor=none;strokeColor=none;rounded=0;rotation=0;fontStyle=1" vertex="1" parent="DY2eJxKH5vXFQJl_m2-v-31">
          <mxGeometry x="80" y="55" width="80" height="30" as="geometry" />
        </mxCell>
        <mxCell id="DY2eJxKH5vXFQJl_m2-v-51" value="&lt;div&gt;Branch&lt;/div&gt;" style="text;html=1;align=center;verticalAlign=middle;resizable=0;points=[];autosize=1;strokeColor=none;fillColor=none;" parent="DY2eJxKH5vXFQJl_m2-v-31" vertex="1">
          <mxGeometry x="110" y="20" width="50" height="20" as="geometry" />
        </mxCell>
        <mxCell id="DY2eJxKH5vXFQJl_m2-v-43" style="edgeStyle=orthogonalEdgeStyle;rounded=0;orthogonalLoop=1;jettySize=auto;html=1;entryX=0;entryY=0.5;entryDx=0;entryDy=0;exitX=1;exitY=0.5;exitDx=0;exitDy=0;strokeWidth=2;" parent="1" edge="1" target="nUi1EGc2xyxIw3pwP0UZ-97" source="WS-DNeEKtPOSdSVS7rN--64">
          <mxGeometry relative="1" as="geometry">
            <mxPoint x="-340.98" y="670" as="sourcePoint" />
            <mxPoint x="-220" y="220" as="targetPoint" />
            <Array as="points">
              <mxPoint x="-380" y="680" />
              <mxPoint x="-380" y="309" />
            </Array>
          </mxGeometry>
        </mxCell>
        <mxCell id="DY2eJxKH5vXFQJl_m2-v-45" style="rounded=0;orthogonalLoop=1;jettySize=auto;html=1;entryX=0;entryY=0.258;entryDx=0;entryDy=0;entryPerimeter=0;strokeWidth=2;" parent="1" target="DY2eJxKH5vXFQJl_m2-v-2" edge="1">
          <mxGeometry relative="1" as="geometry">
            <mxPoint x="-590" y="470" as="sourcePoint" />
            <mxPoint x="-570" y="432" as="targetPoint" />
          </mxGeometry>
        </mxCell>
        <mxCell id="nUi1EGc2xyxIw3pwP0UZ-62" value="&lt;font style=&quot;font-size: 18px;&quot;&gt;&lt;b&gt;4&lt;/b&gt;&lt;/font&gt;" style="edgeLabel;html=1;align=center;verticalAlign=middle;resizable=0;points=[];" vertex="1" connectable="0" parent="DY2eJxKH5vXFQJl_m2-v-45">
          <mxGeometry x="-0.8095" relative="1" as="geometry">
            <mxPoint x="-21" as="offset" />
          </mxGeometry>
        </mxCell>
        <mxCell id="DY2eJxKH5vXFQJl_m2-v-49" style="edgeStyle=orthogonalEdgeStyle;rounded=0;orthogonalLoop=1;jettySize=auto;html=1;exitX=0.998;exitY=0.486;exitDx=0;exitDy=0;exitPerimeter=0;entryX=0.003;entryY=0.495;entryDx=0;entryDy=0;entryPerimeter=0;strokeWidth=2;" parent="1" edge="1" target="nUi1EGc2xyxIw3pwP0UZ-52" source="nUi1EGc2xyxIw3pwP0UZ-44">
          <mxGeometry relative="1" as="geometry">
            <mxPoint x="230" y="728" as="sourcePoint" />
            <mxPoint x="360" y="730" as="targetPoint" />
            <Array as="points">
              <mxPoint x="330" y="835" />
              <mxPoint x="330" y="835" />
            </Array>
          </mxGeometry>
        </mxCell>
        <mxCell id="DY2eJxKH5vXFQJl_m2-v-62" style="edgeStyle=orthogonalEdgeStyle;rounded=0;orthogonalLoop=1;jettySize=auto;html=1;strokeColor=#EA6B66;entryX=1;entryY=0.5;entryDx=0;entryDy=0;strokeWidth=2;" parent="1" source="DY2eJxKH5vXFQJl_m2-v-51" target="nUi1EGc2xyxIw3pwP0UZ-91" edge="1">
          <mxGeometry relative="1" as="geometry">
            <mxPoint x="35" y="359" as="targetPoint" />
            <Array as="points">
              <mxPoint x="-15.000000000000002" y="530" />
            </Array>
          </mxGeometry>
        </mxCell>
        <mxCell id="nUi1EGc2xyxIw3pwP0UZ-73" value="Branch" style="edgeLabel;html=1;align=center;verticalAlign=middle;resizable=0;points=[];" vertex="1" connectable="0" parent="DY2eJxKH5vXFQJl_m2-v-62">
          <mxGeometry x="0.8676" y="-2" relative="1" as="geometry">
            <mxPoint x="-2" y="21" as="offset" />
          </mxGeometry>
        </mxCell>
        <mxCell id="DY2eJxKH5vXFQJl_m2-v-64" style="edgeStyle=orthogonalEdgeStyle;rounded=0;orthogonalLoop=1;jettySize=auto;html=1;entryX=0;entryY=0.5;entryDx=0;entryDy=0;strokeColor=#EA6B66;strokeWidth=2;" parent="1" source="DY2eJxKH5vXFQJl_m2-v-53" target="nUi1EGc2xyxIw3pwP0UZ-108" edge="1">
          <mxGeometry relative="1" as="geometry">
            <mxPoint x="615" y="800" as="targetPoint" />
          </mxGeometry>
        </mxCell>
        <mxCell id="DY2eJxKH5vXFQJl_m2-v-61" style="edgeStyle=orthogonalEdgeStyle;rounded=0;orthogonalLoop=1;jettySize=auto;html=1;entryX=1;entryY=0.5;entryDx=0;entryDy=0;strokeColor=#EA6B66;strokeWidth=2;" parent="1" source="DY2eJxKH5vXFQJl_m2-v-36" target="nUi1EGc2xyxIw3pwP0UZ-88" edge="1">
          <mxGeometry relative="1" as="geometry">
            <mxPoint x="227" y="240" as="targetPoint" />
          </mxGeometry>
        </mxCell>
        <mxCell id="nUi1EGc2xyxIw3pwP0UZ-74" value="Jump" style="edgeLabel;html=1;align=center;verticalAlign=middle;resizable=0;points=[];" vertex="1" connectable="0" parent="DY2eJxKH5vXFQJl_m2-v-61">
          <mxGeometry x="0.8856" y="1" relative="1" as="geometry">
            <mxPoint x="-4" y="113" as="offset" />
          </mxGeometry>
        </mxCell>
        <mxCell id="DY2eJxKH5vXFQJl_m2-v-72" style="edgeStyle=orthogonalEdgeStyle;rounded=0;orthogonalLoop=1;jettySize=auto;html=1;strokeColor=#000000;exitX=1;exitY=0.5;exitDx=0;exitDy=0;entryX=0;entryY=0.75;entryDx=0;entryDy=0;entryPerimeter=0;strokeWidth=2;" parent="1" source="DY2eJxKH5vXFQJl_m2-v-70" target="DY2eJxKH5vXFQJl_m2-v-5" edge="1">
          <mxGeometry relative="1" as="geometry">
            <Array as="points" />
            <mxPoint x="-60" y="440" as="targetPoint" />
          </mxGeometry>
        </mxCell>
        <mxCell id="DY2eJxKH5vXFQJl_m2-v-91" style="edgeStyle=orthogonalEdgeStyle;rounded=0;orthogonalLoop=1;jettySize=auto;html=1;strokeColor=#005700;exitX=1;exitY=0.5;exitDx=0;exitDy=0;fillColor=#008a00;strokeWidth=3;entryX=0;entryY=0.5;entryDx=0;entryDy=0;" parent="1" source="DY2eJxKH5vXFQJl_m2-v-83" target="DY2eJxKH5vXFQJl_m2-v-70" edge="1">
          <mxGeometry relative="1" as="geometry">
            <mxPoint x="-210" y="440" as="targetPoint" />
          </mxGeometry>
        </mxCell>
        <mxCell id="DY2eJxKH5vXFQJl_m2-v-70" value="shift left 2" style="shape=step;perimeter=stepPerimeter;whiteSpace=wrap;html=1;fixedSize=1;strokeWidth=2;" parent="1" vertex="1">
          <mxGeometry x="-260" y="420" width="100" height="40" as="geometry" />
        </mxCell>
        <mxCell id="DY2eJxKH5vXFQJl_m2-v-78" style="edgeStyle=orthogonalEdgeStyle;rounded=0;orthogonalLoop=1;jettySize=auto;html=1;strokeColor=#000000;exitX=0.5;exitY=0;exitDx=0;exitDy=0;entryX=-0.004;entryY=0.498;entryDx=0;entryDy=0;entryPerimeter=0;strokeWidth=2;" parent="1" source="nUi1EGc2xyxIw3pwP0UZ-13" target="WS-DNeEKtPOSdSVS7rN--71" edge="1">
          <mxGeometry relative="1" as="geometry">
            <mxPoint x="-290.0000000000002" y="920.0000000000002" as="sourcePoint" />
            <mxPoint x="-220" y="900" as="targetPoint" />
          </mxGeometry>
        </mxCell>
        <mxCell id="DY2eJxKH5vXFQJl_m2-v-85" style="edgeStyle=orthogonalEdgeStyle;rounded=0;orthogonalLoop=1;jettySize=auto;html=1;strokeColor=#000000;entryX=0;entryY=0.5;entryDx=0;entryDy=0;exitX=1;exitY=0.5;exitDx=0;exitDy=0;strokeWidth=2;" parent="1" target="DY2eJxKH5vXFQJl_m2-v-83" edge="1" source="WS-DNeEKtPOSdSVS7rN--64">
          <mxGeometry relative="1" as="geometry">
            <mxPoint x="-390" y="670" as="sourcePoint" />
            <Array as="points">
              <mxPoint x="-380" y="680" />
              <mxPoint x="-380" y="440" />
            </Array>
            <mxPoint x="-270" y="1020" as="targetPoint" />
          </mxGeometry>
        </mxCell>
        <mxCell id="DY2eJxKH5vXFQJl_m2-v-83" value="sign extend" style="ellipse;whiteSpace=wrap;html=1;aspect=fixed;strokeWidth=2;" parent="1" vertex="1">
          <mxGeometry x="-350" y="400" width="80" height="80" as="geometry" />
        </mxCell>
        <mxCell id="8NEXDnN6t6G3g_AU2FfB-1" value="" style="endArrow=classic;html=1;rounded=0;edgeStyle=orthogonalEdgeStyle;strokeWidth=2;exitX=1;exitY=0.5;exitDx=0;exitDy=0;entryX=0;entryY=0.5;entryDx=0;entryDy=0;" parent="1" source="WS-DNeEKtPOSdSVS7rN--64" target="DY2eJxKH5vXFQJl_m2-v-31" edge="1">
          <mxGeometry width="50" height="50" relative="1" as="geometry">
            <mxPoint x="-260" y="680" as="sourcePoint" />
            <mxPoint x="-210" y="610" as="targetPoint" />
            <Array as="points">
              <mxPoint x="-260" y="680" />
              <mxPoint x="-260" y="610" />
            </Array>
          </mxGeometry>
        </mxCell>
        <mxCell id="pgmYSDxP_4GWdgdE1uiK-3" style="edgeStyle=orthogonalEdgeStyle;rounded=0;orthogonalLoop=1;jettySize=auto;html=1;entryX=0.25;entryY=1;entryDx=0;entryDy=0;exitX=0.997;exitY=0.497;exitDx=0;exitDy=0;exitPerimeter=0;strokeWidth=2;" parent="1" source="nUi1EGc2xyxIw3pwP0UZ-94" target="nUi1EGc2xyxIw3pwP0UZ-88" edge="1">
          <mxGeometry relative="1" as="geometry">
            <mxPoint x="-90.84000000000015" y="179.68000000000006" as="sourcePoint" />
            <mxPoint x="212" y="180.0088888888888" as="targetPoint" />
          </mxGeometry>
        </mxCell>
        <mxCell id="pgmYSDxP_4GWdgdE1uiK-8" style="edgeStyle=orthogonalEdgeStyle;rounded=0;orthogonalLoop=1;jettySize=auto;html=1;entryX=0.75;entryY=1;entryDx=0;entryDy=0;exitX=1;exitY=0.25;exitDx=0;exitDy=0;strokeWidth=2;" parent="1" source="WS-DNeEKtPOSdSVS7rN--68" target="nUi1EGc2xyxIw3pwP0UZ-105" edge="1">
          <mxGeometry relative="1" as="geometry">
            <Array as="points">
              <mxPoint x="120" y="855" />
              <mxPoint x="120" y="329" />
            </Array>
            <mxPoint x="310" y="229.9944444444444" as="targetPoint" />
          </mxGeometry>
        </mxCell>
        <mxCell id="nUi1EGc2xyxIw3pwP0UZ-1" style="edgeStyle=orthogonalEdgeStyle;rounded=0;orthogonalLoop=1;jettySize=auto;html=1;strokeWidth=2;entryX=0;entryY=0.5;entryDx=0;entryDy=0;" edge="1" parent="1" target="WS-DNeEKtPOSdSVS7rN--64">
          <mxGeometry relative="1" as="geometry">
            <mxPoint x="-580" y="679.9999999999999" as="sourcePoint" />
            <mxPoint x="-570" y="680" as="targetPoint" />
          </mxGeometry>
        </mxCell>
        <mxCell id="nUi1EGc2xyxIw3pwP0UZ-2" style="edgeStyle=orthogonalEdgeStyle;rounded=0;orthogonalLoop=1;jettySize=auto;html=1;strokeWidth=2;entryX=0;entryY=0.75;entryDx=0;entryDy=0;entryPerimeter=0;exitX=1;exitY=0.5;exitDx=0;exitDy=0;" edge="1" parent="1" source="Sr_XkSmEFv8LBYHxL81N-1" target="DY2eJxKH5vXFQJl_m2-v-2">
          <mxGeometry relative="1" as="geometry">
            <mxPoint x="-560.0000000000002" y="140" as="targetPoint" />
            <mxPoint x="-580" y="680" as="sourcePoint" />
            <Array as="points">
              <mxPoint x="-580" y="680" />
              <mxPoint x="-580" y="530" />
            </Array>
          </mxGeometry>
        </mxCell>
        <mxCell id="nUi1EGc2xyxIw3pwP0UZ-69" value="" style="edgeStyle=orthogonalEdgeStyle;rounded=0;orthogonalLoop=1;jettySize=auto;html=1;endArrow=oval;endFill=1;strokeWidth=1;" edge="1" parent="1" source="Sr_XkSmEFv8LBYHxL81N-1">
          <mxGeometry relative="1" as="geometry">
            <mxPoint x="-580" y="680" as="targetPoint" />
            <Array as="points">
              <mxPoint x="-590" y="680" />
            </Array>
          </mxGeometry>
        </mxCell>
        <mxCell id="Sr_XkSmEFv8LBYHxL81N-1" value="PC" style="rounded=0;whiteSpace=wrap;html=1;shadow=0;glass=0;sketch=0;fontColor=#F0F5F7;fillColor=#25607D;" parent="1" vertex="1">
          <mxGeometry x="-640" y="600" width="40" height="160" as="geometry" />
        </mxCell>
        <mxCell id="nUi1EGc2xyxIw3pwP0UZ-7" value="" style="endArrow=classic;html=1;rounded=0;fontColor=#000000;strokeColor=default;strokeWidth=2;elbow=vertical;entryX=0.5;entryY=1;entryDx=0;entryDy=0;edgeStyle=orthogonalEdgeStyle;exitX=1;exitY=0.5;exitDx=0;exitDy=0;" edge="1" parent="1" source="WS-DNeEKtPOSdSVS7rN--64" target="nUi1EGc2xyxIw3pwP0UZ-13">
          <mxGeometry width="50" height="50" relative="1" as="geometry">
            <mxPoint x="-480" y="920" as="sourcePoint" />
            <mxPoint x="-409.99" y="920" as="targetPoint" />
            <Array as="points">
              <mxPoint x="-380" y="680" />
              <mxPoint x="-380" y="910" />
            </Array>
          </mxGeometry>
        </mxCell>
        <mxCell id="nUi1EGc2xyxIw3pwP0UZ-16" value="Rt" style="edgeLabel;html=1;align=center;verticalAlign=middle;resizable=0;points=[];" vertex="1" connectable="0" parent="nUi1EGc2xyxIw3pwP0UZ-7">
          <mxGeometry x="0.8412" y="-1" relative="1" as="geometry">
            <mxPoint as="offset" />
          </mxGeometry>
        </mxCell>
        <mxCell id="nUi1EGc2xyxIw3pwP0UZ-9" value="" style="endArrow=classic;html=1;rounded=0;fontColor=#000000;strokeColor=default;strokeWidth=2;elbow=vertical;entryX=0.75;entryY=1;entryDx=0;entryDy=0;startArrow=oval;startFill=1;" edge="1" parent="1" target="nUi1EGc2xyxIw3pwP0UZ-13">
          <mxGeometry width="50" height="50" relative="1" as="geometry">
            <mxPoint x="-400" y="950" as="sourcePoint" />
            <mxPoint x="-409.99" y="960" as="targetPoint" />
          </mxGeometry>
        </mxCell>
        <mxCell id="nUi1EGc2xyxIw3pwP0UZ-10" value="R31 (JAL)" style="edgeLabel;html=1;align=center;verticalAlign=middle;resizable=0;points=[];fontSize=14;fontStyle=1" connectable="0" vertex="1" parent="nUi1EGc2xyxIw3pwP0UZ-9">
          <mxGeometry x="-0.65" relative="1" as="geometry">
            <mxPoint x="-54" as="offset" />
          </mxGeometry>
        </mxCell>
        <mxCell id="nUi1EGc2xyxIw3pwP0UZ-11" value="" style="endArrow=classic;html=1;rounded=0;fontColor=#000000;strokeColor=default;strokeWidth=2;elbow=vertical;edgeStyle=orthogonalEdgeStyle;entryX=0.25;entryY=1;entryDx=0;entryDy=0;exitX=1;exitY=0.5;exitDx=0;exitDy=0;" edge="1" parent="1" source="WS-DNeEKtPOSdSVS7rN--64" target="nUi1EGc2xyxIw3pwP0UZ-13">
          <mxGeometry width="50" height="50" relative="1" as="geometry">
            <mxPoint x="-480" y="880" as="sourcePoint" />
            <mxPoint x="-409.99" y="880" as="targetPoint" />
            <Array as="points">
              <mxPoint x="-380" y="680" />
              <mxPoint x="-380" y="870" />
            </Array>
          </mxGeometry>
        </mxCell>
        <mxCell id="nUi1EGc2xyxIw3pwP0UZ-17" value="Rd" style="edgeLabel;html=1;align=center;verticalAlign=middle;resizable=0;points=[];" vertex="1" connectable="0" parent="nUi1EGc2xyxIw3pwP0UZ-11">
          <mxGeometry x="0.8249" relative="1" as="geometry">
            <mxPoint x="-6" as="offset" />
          </mxGeometry>
        </mxCell>
        <mxCell id="nUi1EGc2xyxIw3pwP0UZ-14" value="" style="group" vertex="1" connectable="0" parent="1">
          <mxGeometry x="-330" y="830" width="40" height="160" as="geometry" />
        </mxCell>
        <mxCell id="nUi1EGc2xyxIw3pwP0UZ-13" value="" style="shape=trapezoid;perimeter=trapezoidPerimeter;whiteSpace=wrap;html=1;fixedSize=1;rounded=0;shadow=0;glass=0;sketch=0;fontColor=#000000;strokeWidth=1;fillColor=#FFFFFF;size=20;rotation=90;" vertex="1" parent="nUi1EGc2xyxIw3pwP0UZ-14">
          <mxGeometry x="-60" y="60" width="160" height="40" as="geometry" />
        </mxCell>
        <mxCell id="nUi1EGc2xyxIw3pwP0UZ-4" value="00" style="text;html=1;align=center;verticalAlign=middle;resizable=0;points=[];autosize=1;strokeColor=none;fillColor=none;fontColor=#000000;" vertex="1" parent="nUi1EGc2xyxIw3pwP0UZ-14">
          <mxGeometry x="5" y="30" width="30" height="20" as="geometry" />
        </mxCell>
        <mxCell id="nUi1EGc2xyxIw3pwP0UZ-5" value="01" style="text;html=1;align=center;verticalAlign=middle;resizable=0;points=[];autosize=1;strokeColor=none;fillColor=none;fontColor=#000000;" vertex="1" parent="nUi1EGc2xyxIw3pwP0UZ-14">
          <mxGeometry x="5" y="70" width="30" height="20" as="geometry" />
        </mxCell>
        <mxCell id="nUi1EGc2xyxIw3pwP0UZ-6" value="10" style="text;html=1;align=center;verticalAlign=middle;resizable=0;points=[];autosize=1;strokeColor=none;fillColor=none;fontColor=#000000;" vertex="1" parent="nUi1EGc2xyxIw3pwP0UZ-14">
          <mxGeometry x="5" y="110" width="30" height="20" as="geometry" />
        </mxCell>
        <mxCell id="nUi1EGc2xyxIw3pwP0UZ-40" value="ALU" style="swimlane;fontFamily=Helvetica;startSize=20;fillColor=#25607D;fontColor=#ffffff;strokeColor=#25607D;swimlaneFillColor=default;strokeWidth=2;" vertex="1" parent="1">
          <mxGeometry x="160" y="780" width="130" height="180" as="geometry" />
        </mxCell>
        <mxCell id="nUi1EGc2xyxIw3pwP0UZ-41" value="ALUOp" style="text;html=1;align=center;verticalAlign=middle;resizable=0;points=[];autosize=1;strokeColor=none;fillColor=none;fontFamily=Helvetica;" vertex="1" parent="nUi1EGc2xyxIw3pwP0UZ-40">
          <mxGeometry y="20" width="60" height="30" as="geometry" />
        </mxCell>
        <mxCell id="nUi1EGc2xyxIw3pwP0UZ-42" value="A" style="text;html=1;align=center;verticalAlign=middle;resizable=0;points=[];autosize=1;strokeColor=none;fillColor=none;fontFamily=Helvetica;" vertex="1" parent="nUi1EGc2xyxIw3pwP0UZ-40">
          <mxGeometry y="60" width="30" height="30" as="geometry" />
        </mxCell>
        <mxCell id="nUi1EGc2xyxIw3pwP0UZ-43" value="B" style="text;html=1;align=center;verticalAlign=middle;resizable=0;points=[];autosize=1;strokeColor=none;fillColor=none;fontFamily=Helvetica;" vertex="1" parent="nUi1EGc2xyxIw3pwP0UZ-40">
          <mxGeometry y="125" width="30" height="30" as="geometry" />
        </mxCell>
        <mxCell id="nUi1EGc2xyxIw3pwP0UZ-44" value="Result" style="text;html=1;align=center;verticalAlign=middle;resizable=0;points=[];autosize=1;strokeColor=none;fillColor=none;fontFamily=Helvetica;" vertex="1" parent="nUi1EGc2xyxIw3pwP0UZ-40">
          <mxGeometry x="70" y="40" width="60" height="30" as="geometry" />
        </mxCell>
        <mxCell id="nUi1EGc2xyxIw3pwP0UZ-49" value="Overflow" style="text;html=1;align=center;verticalAlign=middle;resizable=0;points=[];autosize=1;strokeColor=none;fillColor=none;fontFamily=Helvetica;" vertex="1" parent="nUi1EGc2xyxIw3pwP0UZ-40">
          <mxGeometry x="60" y="80" width="70" height="30" as="geometry" />
        </mxCell>
        <mxCell id="nUi1EGc2xyxIw3pwP0UZ-50" value="Carry out" style="text;html=1;align=center;verticalAlign=middle;resizable=0;points=[];autosize=1;strokeColor=none;fillColor=none;fontFamily=Helvetica;" vertex="1" parent="nUi1EGc2xyxIw3pwP0UZ-40">
          <mxGeometry x="60" y="110" width="70" height="30" as="geometry" />
        </mxCell>
        <mxCell id="nUi1EGc2xyxIw3pwP0UZ-48" value="Zero" style="text;html=1;align=center;verticalAlign=middle;resizable=0;points=[];autosize=1;strokeColor=none;fillColor=none;fontFamily=Helvetica;" vertex="1" parent="nUi1EGc2xyxIw3pwP0UZ-40">
          <mxGeometry x="75" y="150" width="50" height="30" as="geometry" />
        </mxCell>
        <mxCell id="nUi1EGc2xyxIw3pwP0UZ-51" value="DMEM" style="swimlane;fontFamily=Helvetica;startSize=20;fillColor=#25607D;fontColor=#ffffff;strokeColor=#25607D;swimlaneFillColor=default;strokeWidth=2;" vertex="1" parent="1">
          <mxGeometry x="380" y="770" width="130" height="160" as="geometry" />
        </mxCell>
        <mxCell id="nUi1EGc2xyxIw3pwP0UZ-52" value="Addr" style="text;html=1;align=center;verticalAlign=middle;resizable=0;points=[];autosize=1;strokeColor=none;fillColor=none;fontFamily=Helvetica;" vertex="1" parent="nUi1EGc2xyxIw3pwP0UZ-51">
          <mxGeometry y="50" width="50" height="30" as="geometry" />
        </mxCell>
        <mxCell id="nUi1EGc2xyxIw3pwP0UZ-53" value="MemWrite" style="text;html=1;align=center;verticalAlign=middle;resizable=0;points=[];autosize=1;strokeColor=none;fillColor=none;fontFamily=Helvetica;" vertex="1" parent="nUi1EGc2xyxIw3pwP0UZ-51">
          <mxGeometry y="20" width="80" height="30" as="geometry" />
        </mxCell>
        <mxCell id="nUi1EGc2xyxIw3pwP0UZ-54" value="Wr Data" style="text;html=1;align=center;verticalAlign=middle;resizable=0;points=[];autosize=1;strokeColor=none;fillColor=none;fontFamily=Helvetica;" vertex="1" parent="nUi1EGc2xyxIw3pwP0UZ-51">
          <mxGeometry y="120" width="70" height="30" as="geometry" />
        </mxCell>
        <mxCell id="nUi1EGc2xyxIw3pwP0UZ-55" value="Result" style="text;html=1;align=center;verticalAlign=middle;resizable=0;points=[];autosize=1;strokeColor=none;fillColor=none;fontFamily=Helvetica;" vertex="1" parent="nUi1EGc2xyxIw3pwP0UZ-51">
          <mxGeometry x="70" y="80" width="60" height="30" as="geometry" />
        </mxCell>
        <mxCell id="DY2eJxKH5vXFQJl_m2-v-81" style="edgeStyle=orthogonalEdgeStyle;rounded=0;orthogonalLoop=1;jettySize=auto;html=1;strokeColor=#EA6B66;entryX=0;entryY=0.5;entryDx=0;entryDy=0;strokeWidth=2;exitX=0.996;exitY=0.499;exitDx=0;exitDy=0;exitPerimeter=0;" parent="1" source="nUi1EGc2xyxIw3pwP0UZ-29" target="nUi1EGc2xyxIw3pwP0UZ-13" edge="1">
          <mxGeometry relative="1" as="geometry">
            <Array as="points">
              <mxPoint x="-10.000000000000002" y="690" />
              <mxPoint x="-10.000000000000002" y="750" />
              <mxPoint x="-310" y="750" />
            </Array>
            <mxPoint x="-10.000000000000002" y="650" as="sourcePoint" />
            <mxPoint x="-305" y="840" as="targetPoint" />
          </mxGeometry>
        </mxCell>
        <mxCell id="nUi1EGc2xyxIw3pwP0UZ-26" value="RegDst" style="edgeLabel;html=1;align=center;verticalAlign=middle;resizable=0;points=[];" vertex="1" connectable="0" parent="DY2eJxKH5vXFQJl_m2-v-81">
          <mxGeometry x="0.6971" y="-1" relative="1" as="geometry">
            <mxPoint x="1" y="4" as="offset" />
          </mxGeometry>
        </mxCell>
        <mxCell id="nUi1EGc2xyxIw3pwP0UZ-76" style="edgeStyle=orthogonalEdgeStyle;rounded=0;orthogonalLoop=1;jettySize=auto;html=1;entryX=1;entryY=0.5;entryDx=0;entryDy=0;strokeWidth=2;strokeColor=#EA6B66;" edge="1" parent="1" source="nUi1EGc2xyxIw3pwP0UZ-75" target="nUi1EGc2xyxIw3pwP0UZ-105">
          <mxGeometry relative="1" as="geometry">
            <mxPoint x="325" y="259" as="targetPoint" />
            <Array as="points">
              <mxPoint x="155" y="570" />
            </Array>
          </mxGeometry>
        </mxCell>
        <mxCell id="nUi1EGc2xyxIw3pwP0UZ-78" value="Jump Reg" style="edgeLabel;html=1;align=center;verticalAlign=middle;resizable=0;points=[];" vertex="1" connectable="0" parent="nUi1EGc2xyxIw3pwP0UZ-76">
          <mxGeometry x="0.9303" y="-3" relative="1" as="geometry">
            <mxPoint x="-3" y="96" as="offset" />
          </mxGeometry>
        </mxCell>
        <mxCell id="nUi1EGc2xyxIw3pwP0UZ-79" style="edgeStyle=orthogonalEdgeStyle;rounded=0;orthogonalLoop=1;jettySize=auto;html=1;entryX=0.25;entryY=1;entryDx=0;entryDy=0;fontFamily=Helvetica;strokeWidth=2;fillColor=#008a00;strokeColor=#005700;startArrow=oval;startFill=1;" edge="1" parent="1" target="WS-DNeEKtPOSdSVS7rN--85">
          <mxGeometry relative="1" as="geometry">
            <mxPoint x="-20" y="895" as="sourcePoint" />
            <Array as="points">
              <mxPoint x="20" y="895" />
              <mxPoint x="20" y="895" />
            </Array>
            <mxPoint x="60" y="955" as="targetPoint" />
          </mxGeometry>
        </mxCell>
        <mxCell id="nUi1EGc2xyxIw3pwP0UZ-80" value="&lt;font style=&quot;font-size: 12px;&quot;&gt;&lt;b&gt;Sign Ext.&amp;nbsp;&amp;nbsp;&lt;/b&gt;&lt;/font&gt;" style="edgeLabel;html=1;align=center;verticalAlign=middle;resizable=0;points=[];" vertex="1" connectable="0" parent="nUi1EGc2xyxIw3pwP0UZ-79">
          <mxGeometry x="-0.619" y="-1" relative="1" as="geometry">
            <mxPoint x="16" y="14" as="offset" />
          </mxGeometry>
        </mxCell>
        <mxCell id="nUi1EGc2xyxIw3pwP0UZ-104" style="edgeStyle=orthogonalEdgeStyle;rounded=0;orthogonalLoop=1;jettySize=auto;html=1;entryX=0.25;entryY=1;entryDx=0;entryDy=0;strokeWidth=2;" edge="1" parent="1" source="nUi1EGc2xyxIw3pwP0UZ-88" target="nUi1EGc2xyxIw3pwP0UZ-105">
          <mxGeometry relative="1" as="geometry">
            <mxPoint x="310" y="186.5" as="targetPoint" />
          </mxGeometry>
        </mxCell>
        <mxCell id="nUi1EGc2xyxIw3pwP0UZ-88" value="" style="shape=trapezoid;perimeter=trapezoidPerimeter;whiteSpace=wrap;html=1;fixedSize=1;fontFamily=Helvetica;direction=south;container=1;expand=1;collapsible=0;" vertex="1" parent="1">
          <mxGeometry x="40" y="249" width="30" height="80" as="geometry">
            <mxRectangle x="260" y="750" width="60" height="20" as="alternateBounds" />
          </mxGeometry>
        </mxCell>
        <mxCell id="nUi1EGc2xyxIw3pwP0UZ-91" value="" style="shape=trapezoid;perimeter=trapezoidPerimeter;whiteSpace=wrap;html=1;fixedSize=1;fontFamily=Helvetica;direction=south;container=1;expand=1;collapsible=0;" vertex="1" parent="1">
          <mxGeometry x="-30" y="350" width="30" height="80" as="geometry">
            <mxRectangle x="260" y="750" width="60" height="20" as="alternateBounds" />
          </mxGeometry>
        </mxCell>
        <mxCell id="nUi1EGc2xyxIw3pwP0UZ-94" value="&lt;b&gt;ADD&lt;/b&gt;" style="verticalLabelPosition=top;verticalAlign=bottom;html=1;shape=mxgraph.basic.polygon;polyCoords=[[0,0],[1,0.31],[1,0.5],[1,0.69],[0,1],[0,0.58],[0.2,0.5],[0,0.42]];polyline=0;fontFamily=Helvetica;labelPosition=center;align=center;strokeWidth=2;" vertex="1" parent="1">
          <mxGeometry x="-130" y="209" width="50" height="120" as="geometry" />
        </mxCell>
        <mxCell id="nUi1EGc2xyxIw3pwP0UZ-96" style="edgeStyle=orthogonalEdgeStyle;rounded=0;orthogonalLoop=1;jettySize=auto;html=1;strokeWidth=2;exitX=1;exitY=0.5;exitDx=0;exitDy=0;entryX=0.009;entryY=0.827;entryDx=0;entryDy=0;entryPerimeter=0;" edge="1" parent="1" source="nUi1EGc2xyxIw3pwP0UZ-97" target="nUi1EGc2xyxIw3pwP0UZ-94">
          <mxGeometry relative="1" as="geometry">
            <mxPoint x="-120" y="310" as="sourcePoint" />
            <mxPoint x="-140" y="308" as="targetPoint" />
            <Array as="points">
              <mxPoint x="-140" y="309" />
            </Array>
          </mxGeometry>
        </mxCell>
        <mxCell id="nUi1EGc2xyxIw3pwP0UZ-97" value="shift left 2" style="shape=step;perimeter=stepPerimeter;whiteSpace=wrap;html=1;fixedSize=1;strokeWidth=2;" vertex="1" parent="1">
          <mxGeometry x="-260" y="289" width="100" height="40" as="geometry" />
        </mxCell>
        <mxCell id="nUi1EGc2xyxIw3pwP0UZ-100" value="" style="endArrow=classic;html=1;rounded=0;edgeStyle=orthogonalEdgeStyle;entryX=0.25;entryY=1;entryDx=0;entryDy=0;strokeWidth=2;startArrow=oval;startFill=1;fillColor=#0050ef;strokeColor=#001DBC;" edge="1" parent="1" target="nUi1EGc2xyxIw3pwP0UZ-91">
          <mxGeometry width="50" height="50" relative="1" as="geometry">
            <mxPoint x="-60" y="370" as="sourcePoint" />
            <mxPoint x="-140" y="350" as="targetPoint" />
            <Array as="points">
              <mxPoint x="-40" y="370" />
              <mxPoint x="-40" y="370" />
            </Array>
          </mxGeometry>
        </mxCell>
        <mxCell id="nUi1EGc2xyxIw3pwP0UZ-101" value="&lt;b&gt;PC+4&lt;/b&gt;" style="edgeLabel;html=1;align=center;verticalAlign=middle;resizable=0;points=[];" vertex="1" connectable="0" parent="nUi1EGc2xyxIw3pwP0UZ-100">
          <mxGeometry x="-0.3526" y="-1" relative="1" as="geometry">
            <mxPoint x="-10" y="-21" as="offset" />
          </mxGeometry>
        </mxCell>
        <mxCell id="nUi1EGc2xyxIw3pwP0UZ-102" value="" style="endArrow=classic;html=1;rounded=0;edgeStyle=orthogonalEdgeStyle;entryX=0.25;entryY=1;entryDx=0;entryDy=0;strokeWidth=2;startArrow=oval;startFill=1;fillColor=#0050ef;strokeColor=#001DBC;" edge="1" parent="1">
          <mxGeometry width="50" height="50" relative="1" as="geometry">
            <mxPoint x="-210" y="240" as="sourcePoint" />
            <mxPoint x="-130" y="240" as="targetPoint" />
            <Array as="points">
              <mxPoint x="-190" y="240" />
              <mxPoint x="-190" y="240" />
            </Array>
          </mxGeometry>
        </mxCell>
        <mxCell id="nUi1EGc2xyxIw3pwP0UZ-103" value="&lt;b&gt;PC+4&lt;/b&gt;" style="edgeLabel;html=1;align=center;verticalAlign=middle;resizable=0;points=[];" vertex="1" connectable="0" parent="nUi1EGc2xyxIw3pwP0UZ-102">
          <mxGeometry x="-0.3526" y="-1" relative="1" as="geometry">
            <mxPoint x="-52" y="-1" as="offset" />
          </mxGeometry>
        </mxCell>
        <mxCell id="nUi1EGc2xyxIw3pwP0UZ-106" style="edgeStyle=orthogonalEdgeStyle;rounded=0;orthogonalLoop=1;jettySize=auto;html=1;entryX=0;entryY=0.5;entryDx=0;entryDy=0;strokeWidth=2;" edge="1" parent="1" source="nUi1EGc2xyxIw3pwP0UZ-105" target="Sr_XkSmEFv8LBYHxL81N-1">
          <mxGeometry relative="1" as="geometry">
            <Array as="points">
              <mxPoint x="200" y="309" />
              <mxPoint x="200" y="180" />
              <mxPoint x="-680" y="180" />
              <mxPoint x="-680" y="680" />
            </Array>
          </mxGeometry>
        </mxCell>
        <mxCell id="nUi1EGc2xyxIw3pwP0UZ-105" value="" style="shape=trapezoid;perimeter=trapezoidPerimeter;whiteSpace=wrap;html=1;fixedSize=1;fontFamily=Helvetica;direction=south;container=1;expand=1;collapsible=0;" vertex="1" parent="1">
          <mxGeometry x="140" y="269" width="30" height="80" as="geometry">
            <mxRectangle x="260" y="750" width="60" height="20" as="alternateBounds" />
          </mxGeometry>
        </mxCell>
        <mxCell id="nUi1EGc2xyxIw3pwP0UZ-107" value="" style="group" vertex="1" connectable="0" parent="1">
          <mxGeometry x="600" y="820" width="40" height="170" as="geometry" />
        </mxCell>
        <mxCell id="nUi1EGc2xyxIw3pwP0UZ-108" value="" style="shape=trapezoid;perimeter=trapezoidPerimeter;whiteSpace=wrap;html=1;fixedSize=1;rounded=0;shadow=0;glass=0;sketch=0;fontColor=#000000;strokeWidth=1;fillColor=#FFFFFF;size=20;rotation=90;" vertex="1" parent="nUi1EGc2xyxIw3pwP0UZ-107">
          <mxGeometry x="-60" y="63.75" width="160" height="42.5" as="geometry" />
        </mxCell>
        <mxCell id="nUi1EGc2xyxIw3pwP0UZ-109" value="00" style="text;html=1;align=center;verticalAlign=middle;resizable=0;points=[];autosize=1;strokeColor=none;fillColor=none;fontColor=#000000;" vertex="1" parent="nUi1EGc2xyxIw3pwP0UZ-107">
          <mxGeometry x="5" y="31.875" width="30" height="20" as="geometry" />
        </mxCell>
        <mxCell id="nUi1EGc2xyxIw3pwP0UZ-110" value="01" style="text;html=1;align=center;verticalAlign=middle;resizable=0;points=[];autosize=1;strokeColor=none;fillColor=none;fontColor=#000000;" vertex="1" parent="nUi1EGc2xyxIw3pwP0UZ-107">
          <mxGeometry x="5" y="74.375" width="30" height="20" as="geometry" />
        </mxCell>
        <mxCell id="nUi1EGc2xyxIw3pwP0UZ-111" value="10" style="text;html=1;align=center;verticalAlign=middle;resizable=0;points=[];autosize=1;strokeColor=none;fillColor=none;fontColor=#000000;" vertex="1" parent="nUi1EGc2xyxIw3pwP0UZ-107">
          <mxGeometry x="5" y="116.875" width="30" height="20" as="geometry" />
        </mxCell>
        <mxCell id="nUi1EGc2xyxIw3pwP0UZ-112" value="" style="endArrow=classic;html=1;rounded=0;edgeStyle=orthogonalEdgeStyle;entryX=0.5;entryY=1;entryDx=0;entryDy=0;strokeWidth=2;startArrow=oval;startFill=1;fillColor=#0050ef;strokeColor=#001DBC;" edge="1" parent="1" target="nUi1EGc2xyxIw3pwP0UZ-108">
          <mxGeometry width="50" height="50" relative="1" as="geometry">
            <mxPoint x="560" y="905" as="sourcePoint" />
            <mxPoint x="630" y="904.81" as="targetPoint" />
            <Array as="points" />
          </mxGeometry>
        </mxCell>
        <mxCell id="nUi1EGc2xyxIw3pwP0UZ-113" value="&lt;b&gt;PC+4&lt;/b&gt;" style="edgeLabel;html=1;align=center;verticalAlign=middle;resizable=0;points=[];" vertex="1" connectable="0" parent="nUi1EGc2xyxIw3pwP0UZ-112">
          <mxGeometry x="-0.3526" y="-1" relative="1" as="geometry">
            <mxPoint x="-33" y="-1" as="offset" />
          </mxGeometry>
        </mxCell>
      </root>
    </mxGraphModel>
  </diagram>
</mxfile>
